<?xml version="1.0" encoding="UTF-8" standalone="no"?><!DOCTYPE svg PUBLIC "-//W3C//DTD SVG 1.1//EN" "http://www.w3.org/Graphics/SVG/1.1/DTD/svg11.dtd"><svg width="100%" height="100%" viewBox="0 0 1080 1080" version="1.1" xmlns="http://www.w3.org/2000/svg" xmlns:xlink="http://www.w3.org/1999/xlink" xml:space="preserve" xmlns:serif="http://www.serif.com/" style="fill-rule:evenodd;clip-rule:evenodd;stroke-linejoin:round;stroke-miterlimit:2;"><rect id="Logo-LoopTani" serif:id="Logo LoopTani" x="0" y="0" width="1080" height="1080" style="fill:none;"/><g><path d="M556.956,407.573c5.669,8.587 9.119,15.489 10.815,28.685l180.835,-48.373c-24.13,-31.345 -48.211,-55.351 -81.483,-73.492l-110.168,93.179Z" style="fill:#ffa900;"/><path d="M288.655,597.017c49.254,-39.785 116.915,-76.217 223.252,-42.776c65.929,20.733 236.68,69.127 236.68,69.127c-101.799,32.77 -203.932,40.444 -276.152,13.731c-87.627,-32.412 -128.752,-41.391 -183.78,-40.081Z" style="fill:#8ebb51;"/><path d="M290.463,604.954c51.424,2.002 93.143,8.025 143.872,31.515c71.991,33.334 196.358,38.849 327.888,-8.8c-67.813,79.069 -282.935,75.48 -327.888,66.565c96.518,44.347 158.572,84.093 232.146,71.248c-69.127,39.039 -156.414,49.555 -241.7,5.818c-75.094,-38.51 -117.073,-102.299 -134.317,-166.346Z" style="fill:#8ebb51;"/><path d="M483.843,707.951c84.816,42.064 165.555,70.06 226.325,24.815c22.051,-16.418 53.562,-56.062 70.008,-100.061c-87.079,70.098 -209.596,86.487 -296.332,75.246Z" style="fill:#8ebb51;"/><path d="M283.646,568.541c-6.04,-78.715 16.65,-126.528 32.001,-156.842c19.614,-38.735 63.267,-79.884 103.698,-101.486l39.844,107.959c-5.865,12.443 -7.195,28.952 0.59,49.875c-98.11,5.348 -139.354,60.303 -176.132,100.494Z" style="fill:#ffa900;"/><path d="M466.366,405.505l-36.529,-100.597c36.908,-17.21 74.836,-25.392 119.591,-24.584l-38.929,103.523c-22.377,1.688 -33.455,8.899 -44.133,21.659Z" style="fill:#ffa900;"/><path d="M522.418,384.679l39.407,-103.689c33.005,4.676 64.072,10.983 93.773,26.907l-106.059,91.031c-8.206,-7.955 -16.717,-12.208 -27.121,-14.249Z" style="fill:#ffa900;"/><path d="M567.964,447.811c-2.76,15.804 -4.897,20.362 -11.331,29.989c82.528,17.303 159.892,48.34 239.88,82.405c4.58,-58.725 -9.649,-112.321 -40.761,-161.92l-187.788,49.527Z" style="fill:#ffa900;"/><path d="M795.094,573.562c-2.424,18.864 -6.091,32.016 -10.873,47.775c-8.726,-2.975 -55.215,-17.795 -120.04,-36.683c-71.568,-20.853 -143.962,-40.402 -173.185,-47.648c-74.512,-18.476 -150.971,0.335 -204.951,47.648c42.318,-48.468 88.187,-102.701 173.898,-105.795c85.711,-3.094 236.015,44.03 335.151,94.703Z" style="fill:#305828;"/></g></svg>